/* XPM */
static char *result[] = {
/* columns rows colors chars-per-pixel */
"64 64 178 2 ",
"   c #B68311",
".  c #B68418",
"X  c #BC891D",
"o  c #C58805",
"O  c #CD8C02",
"+  c #C58A0B",
"@  c #CC8E08",
"#  c #D18E03",
"$  c #CF9004",
"%  c #CF9109",
"&  c #D39206",
"*  c #DA9507",
"=  c #D59509",
"-  c #D99709",
";  c #DC9A0B",
":  c #C38C16",
">  c #C98E12",
",  c #C38B1C",
"<  c #C7901D",
"1  c #CD921A",
"2  c #D19514",
"3  c #D79A14",
"4  c #DE9D13",
"5  c #D59A1B",
"6  c #DA9E1C",
"7  c #E09709",
"8  c #E29E0C",
"9  c #E39E11",
"0  c #DDA01E",
"q  c #E5A10E",
"w  c #EBA50D",
"e  c #EFA80F",
"r  c #F6AA07",
"t  c #F8A907",
"y  c #F1A60C",
"u  c #F4AA0B",
"i  c #FAAA0C",
"p  c #E4A213",
"a  c #EAA513",
"s  c #EEA913",
"d  c #E4A41A",
"f  c #EAA719",
"g  c #ECAA1B",
"h  c #F3A714",
"j  c #F3AC13",
"k  c #FAAC14",
"l  c #F2A619",
"z  c #F3AE1B",
"x  c #FAAD1C",
"c  c #FFB016",
"v  c #F4B01D",
"b  c #FFB11C",
"n  c #C49028",
"m  c #C9982E",
"M  c #D49A25",
"N  c #D99F22",
"B  c #D19E2E",
"V  c #C69A3A",
"C  c #DBA022",
"Z  c #D9A22B",
"A  c #DBA331",
"S  c #D5A23F",
"D  c #DCA93D",
"F  c #E7A720",
"G  c #EEAD22",
"H  c #EAAD2C",
"J  c #F0AF22",
"K  c #FBAD22",
"L  c #EFB027",
"P  c #EEB12E",
"I  c #F4B224",
"U  c #FEB323",
"Y  c #F4B42B",
"T  c #FDB52B",
"R  c #FFB92D",
"E  c #E7AD31",
"W  c #E3AA3E",
"Q  c #E9AB3D",
"!  c #EEB436",
"~  c #E4B03F",
"^  c #F4B632",
"/  c #FAB632",
"(  c #F5B835",
")  c #FEB933",
"_  c #F5BA3B",
"`  c #FDBC3C",
"'  c #C99D45",
"]  c #D7A442",
"[  c #DAA542",
"{  c #DFAB41",
"}  c #D8A84A",
"|  c #DFB14C",
" . c #E3AD42",
".. c #EDB445",
"X. c #E5B24D",
"o. c #E9B34C",
"O. c #EEBB4C",
"+. c #F5BD44",
"@. c #FCBD42",
"#. c #F5BE4A",
"$. c #FCBF4A",
"%. c #E4B554",
"&. c #E9B552",
"*. c #E9B857",
"=. c #E3B759",
"-. c #E5B95D",
";. c #ECBA5C",
":. c #F6BF59",
">. c #D5AC62",
",. c #E6BC63",
"<. c #EABE65",
"1. c #FFC146",
"2. c #F6C04C",
"3. c #FCC24C",
"4. c #F7C354",
"5. c #F9C454",
"6. c #F6C45C",
"7. c #F9C65B",
"8. c #FCC95D",
"9. c #EAC26C",
"0. c #F4C464",
"q. c #FAC761",
"w. c #FAC964",
"e. c #F3C56A",
"r. c #F4C86E",
"t. c #FACD6C",
"y. c #ECC573",
"u. c #EFC877",
"i. c #E7C57B",
"p. c #ECC779",
"a. c #EEC97C",
"s. c #F3C774",
"d. c #F3CA74",
"f. c #FBCF72",
"g. c #F3CC7B",
"h. c #F9CC79",
"j. c #FCD075",
"k. c #FCD37B",
"l. c #E4C184",
"z. c #EECD84",
"x. c #F2CE85",
"c. c #F5D086",
"v. c #FDD683",
"b. c #FED887",
"n. c #F3D18B",
"m. c #FED788",
"M. c #FED98B",
"N. c #F5D593",
"B. c #FEDC92",
"V. c #F3D698",
"C. c #F8D799",
"Z. c #FCDB9E",
"A. c #F5DCA5",
"S. c #FCDBA3",
"D. c #F4DDAC",
"F. c #FADDAA",
"G. c #FCE1A4",
"H. c #FDE2AB",
"J. c #F7E2B5",
"K. c #FBE3B1",
"L. c #F7E5BE",
"P. c #FCE6BD",
"I. c #FEEABE",
"U. c #F7E6C3",
"Y. c #FBE7C3",
"T. c #F7E8C6",
"R. c #FCEBC5",
"E. c #FCECCB",
"W. c #FCEED4",
"Q. c #FBEFD8",
"!. c #FEF0D2",
"~. c #FCF1DB",
"^. c #FCF5E4",
"/. c #FDF6E8",
"(. c #FFF8E8",
"). c #FEFBF4",
"_. c #FFFFFE",
"`. c None",
/* pixels */
"`.`.`.`.`.`.`.`.`.`.`.`.`.`.`.`.`.`.`.`.`.`.`.`.`.`.`.`.`.`.`.`.`.`.`.`.`.`.`.`.`.`.`.`.`.`.R `.`.`.`.`.`.`.`.`.`.`.`.`.`.`.`.`.",
"`.`.`.`.`.`.`.`.`.`.`.`.`.`.`.`.`.`.`.`.`.`.`.`.`.`.`.`.`.`.`.`.`.`.`.`.`.`.`.`.T T U z x J z z z k R `.`.`.`.`.`.`.`.`.`.`.`.`.",
"`.`.`.`.`.`.`.`.`.`.`.`.`.`.`.`.`.`.`.`.`.`.`.`.`.`.`.`.`.`.`.`.`.`.`.`.`.`.R U I I v I I z z z z k `.`.`.`.`.`.`.`.`.`.`.`.`.`.",
"`.`.`.`.`.`.`.`.`.`.`.`.`.`.`.`.`.`.`.`.`.`.`.`.`.`.`.`.`.`.`.`.`.`.`.`.R T Y I I I I v v z z z z U `.`.`.`.`.`.`.`.`.`.`.`.`.`.",
"`.`.`.`.`.`.`.`.`.`.`.`.`.`.`.`.`.`.`.`.`.`.`.`.`.`.`.`.`.`.`.`.`.`.`.) Y I Y I I v L z v v z z z U `.`.`.`.`.`.`.`.`.`.`.`.`.`.",
"`.`.`.`.`.`.`.`.`.`.`.`.`.`.`.`.`.`.`.`.`.`.`.`.`.`.`.`.`.`.`.`.`.`.) T Y Y I I I I v z v j j z k `.`.`.`.`.`.`.`.`.`.`.`.`.`.`.",
"`.`.`.`.`.`.`.`.`.`.`.`.`.`.`.`.`.`.`.`.`.`.`.`.`.`.`.`.`.`.`.`.`.) Y Y Y I Y J I z v v v z z j U `.`.`.`.`.`.`.`.`.`.`.`.`.`.`.",
"`.`.`.`.`.`.`.`.`.`.`.`.`.`.`.`.`.`.`.`.`.`.`.`.`.`.`.`.`.`.`.`.`./ ^ Y Y T I I v v v v j j z x `.`.`.`.`.`.`.`.`.`.`.`.`.`.`.`.",
"`.`.`.`.`.`.`.`.`.`.`.`.`.`.`.`.`.`.`.`.`.`.`.`.`.`.`.`.`.`.`.`.) / Y Y Y I I I z z z z j j k U `.`.`.`.`.`.`.`.`.`.`.`.`.`.`.`.",
"`.`.`.`.`.`.`.`.`.`.`.`.`.`.`.`.`.`.`.`.`.`.`.`.`.`.`.`.`.`.`.`.) ^ ^ Y Y I I v v z z z z j b `.`.`.`.`.`.`.`.`.`.`.`.`.`.`.`.`.",
"`.`.`.`.`.`.`.`.`.`.`.`.`.`.`.`.`.`.`.`.`.`.`.`.`.`.`.`.`.`.`.`./ ( Y Y Y I I I v v z j z b `.`.`.`.`.`.`.`.`.`.`.`.`.`.`.`.`.`.",
"`.`.`.`.`.`.`.`.`.`.`.`.`.`.`.`.`.`.`.`.`.`.`.`.`.`.`.`.`.`.`.R / ( Y Y I I v v j j j k b `.`.`.`.`.`.`.`.`.`.`.`.`.`.`.`.`.`.`.",
"`.`.`.`.`.`.`.`.`.`.`.`.`.`.`.`.`.`.`.`.`.`.`.`.`.`.`.` ` `.`.` ^ ^ Y Y I J z z v k b U `.`.`.`.`.`.`.`.`.`.`.`.`.`.`.`.`.`.`.`.",
"`.`.`.`.`.`.`.`.`.`.`.`.`.`.`.`.`.`.`.`.`.`.`.`.`.`.` 1.` ` R ) / R T U U x x U U U `.`.`.`.`.`.`.`.`.`.`.`.`.`.`.`.`.`.`.`.`.`.",
"`.`.`.`.`.`.`.`.`.`.`.`.`.`.`.`.`.`.`.`.`.`.`.`.`.`.`.@.@.` ) `.`.`.`.`.`.`.`.`.`.`.`.`.`.`.`.`.`.`.`.`.`.`.`.`.`.`.`.`.`.`.`.`.",
"`.`.`.`.`.`.`.`.`.`.`.`.`.`.`.`.`.`.`.`.`.`.`.`.`.`.`.`.@.` ` `.`.`.`.`.`.`.`.`.`.`.`.`.`.`.`.`.`.`.`.`.`.`.`.`.`.`.`.`.`.`.`.`.",
"`.`.`.`.`.`.`.`.`.`.`.`.`.`.`.`.`.3.3.1.`.`.`.`.`.`.`.`.` ` ) `.`.`.`.`.`.`.`.`.`.`.`.`.`.`.`.`.`.`.`.`.`.`.`.`.`.`.`.`.`.`.`.`.",
"`.`.`.`.`.`.`.`.`.`.`.`.`.8.f.j.k.k.k.j.t.q.8.3.1.`.`.`.) _ ` `.`.`.`.`.`.R U b c k u i i i i c b `.`.`.`.`.`.`.`.`.`.`.`.`.`.`.",
"`.`.`.`.`.`.`.`.`.`.`.8.k.b.M.b.b.b.k.k.j.j.t.w.7.5.2.1.` ` ( ` R R R R b v z j j j u u r r r r t t c U `.`.`.`.`.`.`.`.`.`.`.`.",
"`.`.`.`.`.`.`.`.`.`.j.M.M.B.B.M.M.b.b.k.k.j.t.t.8.7.4.4.2.@._ ( ^ Y I I v v z z j u j u u r u r r r t t b `.`.`.`.`.`.`.`.`.`.`.",
"`.`.`.`.`.`.`.`.1.k.B.B.B.B.B.M.M.M.v.k.k.j.t.t.w.7.4.2.2.2._ ! ^ Y I J v J j j j u u i u r r r r r r r t c `.`.`.`.`.`.`.`.`.`.",
"`.`.`.`.`.`.`.`.k.B.B.B.B.B.M.M.M.v.v.v.k.j.t.t.w.6.4.2._ 2._ ( ^ Y Y I v z j j u j u i u r r r r r r r r t b `.`.`.`.`.`.`.`.`.",
"`.`.`.`.`.`.`.j.M.B.B.B.B.B.H.E.R.M.v.k.j.j.t.t.w.6.4.2.2._ _ ( ^ Y I I v z j j j j u u r r u r r t r r r r t U `.`.`.`.`.`.`.`.",
"`.`.`.`.`.`.8.b.B.B.B.B.K.(._.!.M.v.v.k.j.t.t.w.6.6.4.2.2._ _ ( ^ Y I J v z v j u j u u r r r r r r r r r r r i `.`.`.`.`.`.`.`.",
"`.`.`.`.`.`.k.M.M.B.B.I._._.!.M.M.v.k.k.j.f.t.w.6.4.4.2.O._ _ ! ^ Y Y G z g z j j u u u u r r u r r r r r r r r b `.`.`.`.`.`.`.",
"`.`.`.`.`.8.v.M.M.B.I._._.^.M.M.v.v.k.k.j.t.w.w.6.6.4.2.+._ _ ( Y Y I I z z z z j u j u u u u r r r r r r y r r i `.`.`.`.`.`.`.",
"`.`.`.`.`.j.b.b.M.Z._._.).B.b.b.v.k.k.f.t.t.w.8.6.4.2.2.+._ ( ! P H I J J v j s j u u u u r u r r r r r r y r y r U `.`.`.`.`.`.",
"`.`.`.`.3.k.v.b.b.!._._.J.b.v.v.k.k.j.d.r.t.w.7.4.7.6.4.+._ ( ^ Y Y I J z s z j s j j u u u r u r y y r r r y r u b `.`.`.`.`.`.",
"`.`.`.`.8.k.v.v.B._._./.v.v.k.k.k.j.j.d.t.w.w.w.G.I.E.T.G.6.! ^ L Y L J J v z s s j u e r e e r r r w r r r w r y k `.`.`.`.`.`.",
"`.`.`.`.w.j.k.k.H._._.H.v.k.k.k.j.j.t.t.w.6.f.I.~.~.~.Q.E.J.*.E L L J J g g z s j e s u e e r r w r e r y r r w y u `.`.`.`.`.`.",
"`.`.`.`.w.j.j.j.R._.).k.k.j.f.f.f.t.t.w.w.6.H.~.^././.^.Q.L.Z.{ P L L z J g s s s s e e e e r e r w w r r w y y y y U `.`.`.`.`.",
"`.`.`.`.w.f.j.j.E._.E.j.j.f.f.t.t.w.w.6.6.w.R.~./././.^.Q.T.D.c.A G L J g z g s s e e e e e w e e r w e y w y y y y b `.`.`.`.`.",
"`.`.`.`.w.t.t.t.L._.G.t.t.t.t.w.w.w.w.6.4.f.E.~.^.E.F.~.Q.U.D.N.9.Z G g g g g g s s a s e e w e e y w y w y w y w w x `.`.`.`.`.",
"`.`.`.`.8.w.w.w.G._.k.w.w.w.w.8.6.7.4.4.4.v.E.~.~.F.V H.T.L.D.V.c.;.C G g g g s s a a w w w w w w w w w w w w w w w x `.`.`.`.`.",
"`.`.`.`.5.8.8.w.g._.w.w.8.7.7.4.7.4.4.2.#.B.Y.W.E.l.m O.H.J.A.V.n.x.o.0 f g s f a a a a w w w w q w w w w w w q w q i `.`.`.`.`.",
"`.`.`.`.3.7.7.5.6.!.7.4.7.4.4.4.4.2.$.#.2.C.L.Y.Y.>.m E 4.A.A.V.n.z.g. .0 f f f a a a w a q a q w w q q q w q q q w k `.`.`.`.`.",
"`.`.`.`.3.5.5.5.4.f.4.2.2.2.2.2.2.2.+.+.2.Z.D.J.H.' Z E P 7.N.N.n.z.x.s.Z d f f p p q p q q q q q q q q q q q q 8 w x `.`.`.`.`.",
"`.`.`.`.` 1.2.2.2.2.2.2.2.2.1.+.+._ +._ 5.C.F.A.S.}  .+._ +.h.N.n.z.z.a.e.M p p p q p q q q q q q q q q q 7 q q 8 8 x `.`.`.`.`.",
"`.`.`.`.1.+.2.1.+.2._ +._ +.+._ _ _ _ _ 7.M.V.C.C.N.N.N.n.n.n.n.z.z.a.a.u.;.5 4 q q 8 q q q q ; ; q ; q ; q 7 q 8 8 x `.`.`.`.`.",
"`.`.`.`.` _ _ _ _ _ ( _ _ _ ( ( ( ^ ^ ! q.c.c.n.n.c.n.n.n.n.n.z.z.a.p.y.9.9.X.2 0 p ; q ; ; ; ; ; ; ; ; ; ; 8 ; 8 8 T `.`.`.`.`.",
"`.`.`.`.) _ ( _ ( ( ( ( ( ( R ( ^ ^ Y ^ t.g.g.g.a.g.g.g.g.g.a.u.p.y.y.y.9.<.,.W = 4 4 ; ; ~ ; ; - 8 - 8 ; ; ; 7 7 8 `.`.`.`.`.`.",
"`.`.`.`.) R R ^ Y ( ( Y Y Y Y Y Y Y Y Y 0.d.d.d.| D D ] ] } S D S  .9.<.<.,.-.=.A = ; ; ;  .U.6 - - - - * - - - 7 y `.`.`.`.`.`.",
"`.`.`.`.`.T Y Y Y Y Y U I Y I Y I Y I ( 0.e.e.q.n N 0 0 0 0 5 0 5 3 ! ,.-.-.=.%.&.M = - ; - l.D.& - - & * * - - * l `.`.`.`.`.`.",
"`.`.`.`.`.R I Y I U v v v I I v I v v _ e.e.0.6.X 0 F F g F d 0 d d d ..=.%.%.%.%.&.1 = = = 3 ).0 & - & & & & - * k `.`.`.`.`.`.",
"`.`.`.`.`.R v I v v v v j v b v v z z @.0.e.6.O.  d g g g g g d f p q d ..%.%.%.%.%.o.> & & & D.| & & & & & & & * `.`.`.`.`.`.`.",
"`.`.`.`.`.`.b v v v v v v z z v z z z #.6.6.:. .X d g g g f g d p p 0 9 g o.X.X.X.X.o.Q + $ & i.D $ & $ & & & & 9 `.`.`.`.`.`.`.",
"`.`.`.`.`.`.b v v j v j j j j j z j z G M M M , 2 d s g p g g p p p 4 4 ; 6 , , , , X ,   o O | $ $ $ $ & # # * x `.`.`.`.`.`.`.",
"`.`.`.`.`.`.U j c j u u j i u j j u j j s f f d p f g g g p a d d 9 9 4 4 ; = % @ @ O o o O O O $ O $ $ # # # * `.`.`.`.`.`.`.`.",
"`.`.`.`.`.`.`.c j u j i j u u j u j u j j j s s j g s s g a p p p p 9 ; ; ; = = = & # # # # O O O O O O O # # 9 `.`.`.`.`.`.`.`.",
"`.`.`.`.`.`.`.b c u u u u u u u u j j u j j j j s s s g a a p p 4 p 4 4 ; - - = & & # # # O O O O O O O O O # K `.`.`.`.`.`.`.`.",
"`.`.`.`.`.`.`.`.u u i i r r u i u u i j j j j s s s s s a p 0 p p ; ; ; ; = = = & % # O O O O o O O O O # # 9 `.`.`.`.`.`.`.`.`.",
"`.`.`.`.`.`.`.`.b r r u r r u r u u u u u u j e j s a a a a w q p 9 9 ; 3 = = = & & # O O O O O O o O O # & K `.`.`.`.`.`.`.`.`.",
"`.`.`.`.`.`.`.`.`.c r r r r r j u r u u u u u s s s s a a a w q 8 0 ; ; ; = = = & O & O O O O O O O O O O 9 `.`.`.`.`.`.`.`.`.`.",
"`.`.`.`.`.`.`.`.`.U r r r r r r r r u u u u j s j e e e a p 0 q p ; ; ; ; = = = O & & O O O O o O o O # 7 `.`.`.`.`.`.`.`.`.`.`.",
"`.`.`.`.`.`.`.`.`.`.c r r r r r r u u u j u e u e e e a a p p q q ; ; ; - = = & & # O @ O O O O O O O # x `.`.`.`.`.`.`.`.`.`.`.",
"`.`.`.`.`.`.`.`.`.`.`.c r r r r r r u u u u u y e e a a w a w q 8 q 8 ; ; = = = & & # # O O O O O O O 9 `.`.`.`.`.`.`.`.`.`.`.`.",
"`.`.`.`.`.`.`.`.`.`.`.`.i r r r r r u r u u u s e e s a a q w q p ; ; ; ; - = & & & O O & O O O # # 9 `.`.`.`.`.`.`.`.`.`.`.`.`.",
"`.`.`.`.`.`.`.`.`.`.`.`.U i r r u r u u r j u y e e e w w a 9 p p 8 q ; - - - & & # & O O O O # # 9 `.`.`.`.`.`.`.`.`.`.`.`.`.`.",
"`.`.`.`.`.`.`.`.`.`.`.`.`.U i i r u u y u u e e e e e a w a p 8 8 0 ; ; ; - - = & & & # & O # # 9 `.`.`.`.`.`.`.`.`.`.`.`.`.`.`.",
"`.`.`.`.`.`.`.`.`.`.`.`.`.`.`.c r u r r u j e y e e w a w q w 8 8 8 ; ; - ; - & = & & # & O = f `.`.`.`.`.`.`.`.`.`.`.`.`.`.`.`.",
"`.`.`.`.`.`.`.`.`.`.`.`.`.`.`.`.b t u y u y y y e e w a a w 8 a q ; 8 ; ; - - - = = & & & 8 K `.`.`.`.`.`.`.`.`.`.`.`.`.`.`.`.`.",
"`.`.`.`.`.`.`.`.`.`.`.`.`.`.`.`.`.`.b i u j y y e e e a a a a 8 q q 8 7 ; ; - - * * * 7 l `.`.`.`.`.`.`.`.`.`.`.`.`.`.`.`.`.`.`.",
"`.`.`.`.`.`.`.`.`.`.`.`.`.`.`.`.`.`.`.`.b b k y y y w y h z x x z l a 8 8 8 ; 7 9 l x `.`.`.`.`.`.`.`.`.`.`.`.`.`.`.`.`.`.`.`.`.",
"`.`.`.`.`.`.`.`.`.`.`.`.`.`.`.`.`.`.`.`.`.`.`.`.`.T `.`.`.`.`.`.`.`.`.`.`.`.`.`.`.`.`.`.`.`.`.`.`.`.`.`.`.`.`.`.`.`.`.`.`.`.`.`."
};
