/* XPM */
static char *result[] = {
/* columns rows colors chars-per-pixel */
"16 16 151 2 ",
"   c #CC8C01",
".  c #CD8C02",
"X  c #CE8D02",
"o  c #D18F03",
"O  c #D09004",
"+  c #D19005",
"@  c #D39104",
"#  c #D29105",
"$  c #D79609",
"%  c #D2930C",
"&  c #D89308",
"*  c #D99708",
"=  c #D89609",
"-  c #D8970A",
";  c #DF9D0E",
":  c #D1981C",
">  c #DB9E1E",
",  c #E29E0A",
"<  c #E0990C",
"1  c #E09D0D",
"2  c #E29E0C",
"3  c #E39F0D",
"4  c #E19C0E",
"5  c #E89F0F",
"6  c #E09E10",
"7  c #EAA40B",
"8  c #EBA20F",
"9  c #EBA50C",
"0  c #EBA50E",
"q  c #EDA70F",
"w  c #F6A906",
"e  c #F4AA07",
"r  c #F6AA07",
"t  c #F1A70B",
"y  c #F1A80A",
"u  c #F5A908",
"i  c #F5AA08",
"p  c #F4AA09",
"a  c #F5AA09",
"s  c #F5AA0B",
"d  c #F1A90C",
"f  c #F3A90D",
"g  c #F2AA0D",
"h  c #F3AB0E",
"j  c #F4AB0E",
"k  c #F6AC0E",
"l  c #F9AB0D",
"z  c #F9AC0C",
"x  c #FCAC0D",
"c  c #FCAC0E",
"v  c #FDAC0E",
"b  c #E4A111",
"n  c #E6A210",
"m  c #E7A311",
"M  c #E2A114",
"N  c #E7A414",
"B  c #E8A111",
"V  c #EBA612",
"C  c #EEA513",
"Z  c #EEA811",
"A  c #EDA814",
"S  c #E1A219",
"D  c #E9A618",
"F  c #EAA819",
"G  c #EFAB1A",
"H  c #F1A610",
"J  c #F0A911",
"K  c #F2A812",
"L  c #F1AB12",
"P  c #F7A910",
"I  c #F7AA11",
"U  c #F4AE16",
"Y  c #F8AD12",
"T  c #F1AD19",
"R  c #F3AE19",
"E  c #F5AF18",
"W  c #F4AE19",
"Q  c #F4AF1A",
"!  c #F4AF1E",
"~  c #FBAE19",
"^  c #F9AF1B",
"/  c #FCAF1E",
"(  c #F4B01F",
")  c #F7B01E",
"_  c #FBB11E",
"`  c #D49D2B",
"'  c #DDA32C",
"]  c #EEAE26",
"[  c #F3B224",
"{  c #F4B327",
"}  c #FAB021",
"|  c #F9B123",
" . c #F2B228",
".. c #F3B32A",
"X. c #F5B42A",
"o. c #F4B52B",
"O. c #F5B52C",
"+. c #F6B62F",
"@. c #FCB42B",
"#. c #FAB62F",
"$. c #FCB52D",
"%. c #E4AB37",
"&. c #E2AD3D",
"*. c #E2AE3E",
"=. c #E8AF3B",
"-. c #F3B93B",
";. c #F5BA3E",
":. c #FFBA38",
">. c #FDBA3B",
",. c #E0AB40",
"<. c #E6B247",
"1. c #F5BB40",
"2. c #F6BD43",
"3. c #F8BF46",
"4. c #EABA54",
"5. c #E6B85A",
"6. c #F7C048",
"7. c #FEC14E",
"8. c #F7C354",
"9. c #F7C456",
"0. c #F7C558",
"q. c #F9C85F",
"w. c #FBC860",
"e. c #FECB66",
"r. c #F4C76D",
"t. c #F9CB69",
"y. c #FACC6D",
"u. c #EEC574",
"i. c #FACF70",
"p. c #FDCF73",
"a. c #F4CC79",
"s. c #FBD279",
"d. c #FFD278",
"f. c #FFD37B",
"g. c #FBD47E",
"h. c #EECB80",
"j. c #EDCD8F",
"k. c #FBD483",
"l. c #F5D28B",
"z. c #F7D38A",
"x. c #FDD888",
"c. c #FFDA8C",
"v. c #FBDB97",
"b. c #FADB9C",
"n. c #F6DCA7",
"m. c #FFE3A8",
"M. c #FEE6B2",
"N. c #FEE9BC",
"B. c #FDEFD0",
"V. c #FCF0D9",
"C. c None",
/* pixels */
"C.C.C.C.C.C.C.C.C.C.| ) / C.C.C.",
"C.C.C.C.C.C.C.C.$.{ ( W C.C.C.C.",
"C.C.C.C.C.C.C.C.+.[ Q ~ C.C.C.C.",
"C.C.C.C.C.C.C.:.@.} C.C.C.C.C.C.",
"C.C.C.f.d.e.7.>.C.^ Y l c C.C.C.",
"C.C.c.m.x.i.0.1...R j i w z C.C.",
"C.d.N.M.g.t.8.-. .T h p e u C.C.",
"C.p.B.s.y.k.V.l.] G J d y t P C.",
"C.w.v.q.9.b.j.n.4.F V 0 9 7 H C.",
"C.3.6.2.;.z.u.a.h.%.b 3 2 , 8 C.",
"C.#.O.X.o.r.,.&.<.5.> *.- * 5 C.",
"C._ E U ! =.S D M ' ` : % @ C.C.",
"C.C.k s j L A N 6 - + .   & C.C.",
"C.C.v r a f Z m ; $ O   X C.C.C.",
"C.C.C.x a g q n 1 = # o C.C.C.C.",
"C.C.C.C.C.I K C B 4 < C.C.C.C.C."
};
