/* XPM */
static char *result[] = {
/* columns rows colors chars-per-pixel */
"32 32 125 2 ",
"   c #C38807",
".  c #CD8D02",
"X  c #D08F04",
"o  c #CF9007",
"O  c #D39205",
"+  c #D99507",
"@  c #D69509",
"#  c #D99509",
"$  c #D7980D",
"%  c #DC9A0B",
"&  c #C68B11",
"*  c #CB8F13",
"=  c #CF9519",
"-  c #D29615",
";  c #DA9B14",
":  c #DB9E1A",
">  c #E29D0D",
",  c #E29F11",
"<  c #EC9F12",
"1  c #DFA11B",
"2  c #E5A10E",
"3  c #ECA50D",
"4  c #EFA80E",
"5  c #F6AA07",
"6  c #F0A70A",
"7  c #F4AA0B",
"8  c #FAAC0D",
"9  c #E4A213",
"0  c #EBA512",
"q  c #EEA914",
"w  c #E1A31E",
"e  c #E8A619",
"r  c #ECAA1B",
"t  c #F0A415",
"y  c #F3AC13",
"u  c #FCAD13",
"i  c #F7A718",
"p  c #F4AE1B",
"a  c #FDAD18",
"s  c #F4B01E",
"d  c #FDB01D",
"f  c #CC9520",
"g  c #D89F24",
"h  c #DCA024",
"j  c #DCA736",
"k  c #E0A526",
"l  c #ECAB22",
"z  c #E8AB2A",
"x  c #F0AF23",
"c  c #F4B224",
"v  c #FCB224",
"b  c #F4B42C",
"n  c #FEB52C",
"m  c #E1A836",
"M  c #E1A739",
"N  c #E5AF3B",
"B  c #EBB23E",
"V  c #F5B632",
"C  c #FCB730",
"Z  c #F5B835",
"A  c #FDB933",
"S  c #F5BA3B",
"D  c #FDBB3C",
"F  c #DFB14C",
"G  c #E3AE46",
"H  c #E6B34D",
"J  c #F5BC43",
"K  c #FBBD41",
"L  c #F7BF49",
"P  c #FABF49",
"I  c #E5B554",
"U  c #E5B75D",
"Y  c #E6B95C",
"T  c #EBBB5D",
"R  c #F1BA52",
"E  c #E6BB63",
"W  c #EABB60",
"Q  c #F6C14D",
"!  c #FDC14D",
"~  c #F7C251",
"^  c #F9C456",
"/  c #F7C55A",
"(  c #F9C75C",
")  c #F8C85F",
"_  c #ECC26B",
"`  c #F4C462",
"'  c #FBCA64",
"]  c #F3C669",
"[  c #FBCD6B",
"{  c #E5C078",
"}  c #ECC779",
"|  c #F5CA74",
" . c #F9CD73",
".. c #F0CA7C",
"X. c #FBD176",
"o. c #FCD37D",
"O. c #EFCC82",
"+. c #EDCE8E",
"@. c #F1CC84",
"#. c #F1CF88",
"$. c #EFD08A",
"%. c #FDD683",
"&. c #F4D28C",
"*. c #FED98C",
"=. c #EDD19D",
"-. c #F4D491",
";. c #F9D695",
":. c #FFDC92",
">. c #F3D89E",
",. c #FDDF9A",
"<. c #F4DAA1",
"1. c #FADAA0",
"2. c #F6DFAC",
"3. c #FDE0A2",
"4. c #FDE3AB",
"5. c #FDE5B1",
"6. c #FCEAC5",
"7. c #FBEBCC",
"8. c #FCEED3",
"9. c #FFF0D2",
"0. c #FDF2D8",
"q. c #FDF6E5",
"w. c #FEFCF6",
"e. c #FEFEFD",
"r. c None",
/* pixels */
"r.r.r.r.r.r.r.r.r.r.r.r.r.r.r.r.r.r.r.r.r.v v d d r.r.r.r.r.r.r.",
"r.r.r.r.r.r.r.r.r.r.r.r.r.r.r.r.r.r.n n c c p p p r.r.r.r.r.r.r.",
"r.r.r.r.r.r.r.r.r.r.r.r.r.r.r.r.r.C b c c p p p d r.r.r.r.r.r.r.",
"r.r.r.r.r.r.r.r.r.r.r.r.r.r.r.r.r.V c c s s p u r.r.r.r.r.r.r.r.",
"r.r.r.r.r.r.r.r.r.r.r.r.r.r.r.r.A b c c s p y d r.r.r.r.r.r.r.r.",
"r.r.r.r.r.r.r.r.r.r.r.r.r.r.r.r.V b c c p y d r.r.r.r.r.r.r.r.r.",
"r.r.r.r.r.r.r.r.r.r.r.r.r.D D C A n s p d r.r.r.r.r.r.r.r.r.r.r.",
"r.r.r.r.r.r.r.r.r.r.r.r.r.r.D A r.r.r.r.r.r.r.r.r.r.r.r.r.r.r.r.",
"r.r.r.r.r.r.r.' [ [ ^ ! r.r.D r.r.r.r.r.d a u u r.r.r.r.r.r.r.r.",
"r.r.r.r.r.[ *.*.*.o.X.[ ( Q ! C n n s y y 8 5 5 5 u r.r.r.r.r.r.",
"r.r.r.r.o.:.:.:.*.%.X.[ ` ~ Q S V c s y 7 7 5 5 5 5 8 r.r.r.r.r.",
"r.r.r.[ *.:.5.9.,.o.X.[ / ~ J Z b c s y y 7 7 5 5 5 5 8 r.r.r.r.",
"r.r.r.%.*.6.w.,.%.o. .' / Q J Z b x r y y 7 7 5 5 5 7 5 a r.r.r.",
"r.r.[ %.3.e.4.%.o.X.[ ) / ~ S Z b x r s y 7 7 5 6 5 5 7 u r.r.r.",
"r.r.[ %.9.q.o.o.X.[ ' o.7.8.<.B b x s q 7 4 3 7 7 5 7 6 7 r.r.r.",
"r.r.[ X.q.4.X.X.[ ' ) 7.q.q.7.O.z c r r q 4 4 7 6 3 6 6 6 r.r.r.",
"r.r.) [ 0.o.[ ' ` / ] 8.7.=.7.<.T e r r q 0 3 3 4 3 6 6 6 r.r.r.",
"r.r.^ ^ 4.) ^ ~ ~ Q  .6.=.j -.>.#.H e e 0 0 2 3 3 3 2 6 2 r.r.r.",
"r.r.! Q ~ Q Q ! L J  .4.{ N J &.$...m 9 2 2 2 2 2 2 2 2 > r.r.r.",
"r.r.K S Q S S S S Z  .-.-.&.&.$.O.} _ h 2 1 > > % % > % > r.r.r.",
"r.r.A S Z V V V b V [ | _ Y U U Y _ E I ; % k N % + % % > r.r.r.",
"r.r.n b c c c c c b _ ` = 1 1 1 1 B Y I G - @ +.% O + + < r.r.r.",
"r.r.r.s s s y s p V ` R = r r e 9 9 N I H j O F h o O O < r.r.r.",
"r.r.r.d a y y y y p 1 : 1 r e 9 9 1 % * & &   = o . X O r.r.r.r.",
"r.r.r.d 8 y 7 7 7 y y q q r e 0 9 ; $ @ O . . . . . . > r.r.r.r.",
"r.r.r.r.u 5 5 7 8 5 7 y q 0 0 9 2 % % @ O . . . . . . r.r.r.r.r.",
"r.r.r.r.d 5 5 5 5 7 7 q y 0 0 9 2 % % O O . . . . . > r.r.r.r.r.",
"r.r.r.r.r.u 5 5 7 7 7 7 4 3 0 2 > % $ @ O . . . . X r.r.r.r.r.r.",
"r.r.r.r.r.r.u 5 7 5 7 4 4 3 0 2 9 % % @ O X X . O r.r.r.r.r.r.r.",
"r.r.r.r.r.r.r.u 5 7 7 7 q 0 3 2 > % % @ O X O # r.r.r.r.r.r.r.r.",
"r.r.r.r.r.r.r.r.a 8 7 7 4 4 0 2 > > % @ # # > r.r.r.r.r.r.r.r.r.",
"r.r.r.r.r.r.r.r.r.r.r.u i i i r.i t 0 0 t r.r.r.r.r.r.r.r.r.r.r."
};
